<?xml version="1.0" encoding="UTF-8"?>
<!DOCTYPE svg PUBLIC "-//W3C//DTD SVG 1.1//EN" "http://www.w3.org/Graphics/SVG/1.1/DTD/svg11.dtd">
<svg version="1.1" id="Layer_1" xmlns="http://www.w3.org/2000/svg" xmlns:xlink="http://www.w3.org/1999/xlink" x="0px" y="0px" width="16px" height="16px" viewBox="0 0 16 16" enable-background="new 0 0 16 16" xml:space="preserve">
  <g id="main">
    <g id="icon">
      <path d="M6.728,0.03887L5.98,0.1531L5.259,0.3387L4.568,0.5918L3.912,0.9086L3.294,1.285L2.717,1.718L2.186,2.203L1.703,2.736L1.273,3.314L0.8992,3.933L0.5852,4.588L0.3346,5.276L0.1512,5.993L0.03848,6.736L0,7.5L0.03887,8.264L0.1531,9.007L0.3387,9.724L0.5918,10.41L0.9086,11.07L1.285,11.69L1.718,12.26L2.203,12.8L2.736,13.28L3.314,13.71L3.933,14.09L4.588,14.41L5.276,14.66L5.993,14.85L6.162,14.87L6.097,14.75L6.001,14.25L6.097,13.75L6.218,13.52L6.387,13.32L8.08,11.62L7.774,11.62L7.58,11.55L7.506,11.36L7.409,10.64L6.387,9.618L6.221,9.416L6.1,9.19L6.025,8.944L6,8.684L6.025,8.424L6.029,8.412L5.756,8.172L5.105,7.796L4.394,7.55L3.643,7.44L3.449,7.366L3.375,7.172L3.375,5.991L3.402,5.882L3.469,5.804L3.556,5.765L3.643,5.777L4.199,5.824L4.737,5.924L5.257,6.075L5.756,6.273L6.684,6.803L7.037,7.1L7.749,6.388L7.951,6.222L8.053,6.167L7.983,6.104L7.455,5.706L6.891,5.356L6.294,5.057L5.667,4.812L5.015,4.625L4.339,4.499L3.643,4.436L3.449,4.362L3.375,4.167L3.375,2.987L3.403,2.877L3.476,2.792L3.697,2.719L4.554,2.783L5.389,2.933L6.199,3.164L6.976,3.47L7.716,3.846L8.412,4.288L9.06,4.79L9.652,5.348L10.21,5.956L10.71,6.611L11.15,7.31L11.53,8.05L11.57,8.14L13.32,6.388L13.52,6.222L13.75,6.101L13.99,6.026L14.25,6.001L14.51,6.026L14.76,6.101L14.87,6.163L14.85,5.993L14.66,5.276L14.41,4.588L14.09,3.933L13.71,3.314L13.28,2.736L12.8,2.203L12.26,1.718L11.69,1.285L11.07,0.9086L10.41,0.5918L9.724,0.3387L9.007,0.1531L8.264,0.03887L7.5,0zM5.025,9.345L5.234,9.445L5.414,9.586L5.655,9.955L5.736,10.44L5.655,10.89L5.414,11.25L5.045,11.49L4.555,11.57L4.086,11.49L3.876,11.39L3.697,11.25L3.456,10.89L3.375,10.44L3.456,9.975L3.556,9.766L3.697,9.586L4.066,9.345L4.555,9.264zz" fill="#cfcfcf"/>
      <path d="M3.476,2.793L3.403,2.877L3.375,2.987L3.375,4.167L3.449,4.362L3.643,4.436L4.339,4.499L5.015,4.625L5.667,4.812L6.294,5.057L6.891,5.356L7.455,5.706L7.983,6.104L8.053,6.168L8.177,6.101L8.423,6.026L8.683,6.001L8.943,6.026L9.189,6.101L9.416,6.222L9.617,6.388L11.47,8.238L11.57,8.14L11.53,8.05L11.15,7.31L10.71,6.611L10.21,5.956L9.652,5.348L9.06,4.79L8.412,4.288L7.716,3.846L6.976,3.47L6.199,3.164L5.389,2.933L4.554,2.783L3.697,2.719zM3.469,5.804L3.402,5.883L3.375,5.991L3.375,7.172L3.449,7.366L3.643,7.44L4.394,7.55L5.105,7.796L5.756,8.172L6.029,8.412L6.1,8.178L6.221,7.951L6.387,7.75L7.037,7.1L6.684,6.803L5.756,6.273L5.257,6.075L4.737,5.924L4.199,5.824L3.643,5.777L3.556,5.765zM4.066,9.345L3.697,9.586L3.556,9.766L3.456,9.975L3.375,10.44L3.456,10.89L3.697,11.25L3.876,11.39L4.086,11.49L4.555,11.57L5.045,11.49L5.414,11.25L5.655,10.89L5.736,10.44L5.655,9.955L5.414,9.586L5.234,9.445L5.025,9.345L4.555,9.264zM7.506,11.36L7.58,11.55L7.774,11.62L8.08,11.62L8.237,11.47L7.41,10.64zz" fill="#FFFFFF"/>
    </g>
    <g id="overlay">
      <path d="M15.906,14.544l-1.362,1.362c-0.125,0.125,-0.329,0.125,-0.454,0l-2.622,-2.622l-2.557,2.557c-0.125,0.125,-0.329,0.125,-0.454,0l-1.362,-1.362c-0.125,-0.125,-0.125,-0.329,0,-0.454l2.557,-2.557L7.094,8.911c-0.125,-0.125,-0.125,-0.329,0,-0.454l1.362,-1.362c0.125,-0.125,0.329,-0.125,0.454,0l2.557,2.557l2.557,-2.557c0.125,-0.125,0.329,-0.125,0.454,0l1.362,1.362c0.125,0.125,0.125,0.329,0,0.454l-2.557,2.557l2.622,2.622C16.031,14.215,16.031,14.418,15.906,14.544z" fill-rule="evenodd" fill="#CD4C32"/>
    </g>
  </g>
</svg>