<?xml version="1.0" encoding="UTF-8"?>
<!DOCTYPE svg PUBLIC "-//W3C//DTD SVG 1.1//EN" "http://www.w3.org/Graphics/SVG/1.1/DTD/svg11.dtd">
<svg version="1.1" id="Layer_1" xmlns="http://www.w3.org/2000/svg" xmlns:xlink="http://www.w3.org/1999/xlink" x="0px" y="0px" width="32px" height="32px" viewBox="0 0 32 32" enable-background="new 0 0 32 32" xml:space="preserve">
  <g id="main">
    <g id="icon">
      <path d="M13.91,0.09492L12.36,0.3309L10.87,0.7145L9.443,1.238L8.087,1.892L6.809,2.671L5.617,3.565L4.519,4.568L3.522,5.67L2.633,6.864L1.861,8.142L1.212,9.496L0.6939,10.92L0.3148,12.4L0.08184,13.94L0.002344,15.51L0.08281,17.09L0.3188,18.63L0.7023,20.11L1.225,21.53L1.88,22.89L2.659,24.17L3.553,25.36L4.555,26.46L5.658,27.46L6.852,28.36L8.13,29.14L9.484,29.79L10.91,30.31L12.39,30.7L13.92,30.93L15.5,31.01L17.08,30.93L17.89,30.81L17.48,30.4L17.29,30.16L17.15,29.9L17.07,29.62L17.04,29.34L17.07,29.05L17.15,28.77L17.29,28.51L17.48,28.28L20.76,25L18.53,22.77L18.41,22.84L18.21,22.88L16.08,22.88L15.89,22.84L15.73,22.74L15.63,22.59L15.6,22.39L15.54,21.71L15.42,21.04L15.24,20.38L15.01,19.75L14.71,19.15L14.36,18.58L13.94,18.04L13.47,17.55L12.97,17.07L12.44,16.64L11.87,16.27L11.26,15.96L10.63,15.71L9.98,15.52L9.309,15.39L8.624,15.32L8.426,15.29L8.273,15.19L8.175,15.03L8.14,14.84L8.14,12.71L8.188,12.51L8.309,12.37L8.467,12.3L8.624,12.32L9.627,12.4L10.6,12.58L11.54,12.86L12.44,13.21L13.3,13.65L14.11,14.17L14.88,14.76L15.6,15.42L16.26,16.13L16.85,16.9L17.36,17.72L17.8,18.58L18,19.08L19.6,17.48L19.83,17.29L19.87,17.28L19.5,16.55L18.87,15.54L18.15,14.59L17.34,13.71L16.46,12.91L15.51,12.19L14.49,11.56L13.41,11.02L12.28,10.58L11.1,10.24L9.88,10.01L8.624,9.896L8.426,9.861L8.273,9.762L8.175,9.61L8.14,9.411L8.14,7.28L8.19,7.082L8.321,6.929L8.508,6.83L8.721,6.796L10.27,6.912L11.78,7.183L13.24,7.599L14.64,8.152L15.98,8.832L17.24,9.629L18.4,10.54L19.47,11.54L20.48,12.64L21.39,13.82L22.19,15.09L22.86,16.42L23.42,17.83L23.83,19.29L23.9,19.65L25,20.76L28.27,17.48L28.5,17.29L28.76,17.16L29.04,17.07L29.33,17.04L29.63,17.07L29.91,17.16L30.17,17.29L30.4,17.48L30.8,17.89L30.92,17.09L31,15.51L30.92,13.94L30.69,12.4L30.3,10.92L29.78,9.496L29.12,8.142L28.35,6.864L27.45,5.67L26.45,4.568L25.35,3.565L24.15,2.671L22.88,1.892L21.52,1.238L20.1,0.7145L18.62,0.3309L17.08,0.09492L15.5,0.01445zM10.7,18.65L11.12,18.76L11.5,18.94L11.82,19.2L12.08,19.51L12.26,19.86L12.37,20.27L12.4,20.75L12.37,21.16L12.26,21.54L12.08,21.89L11.82,22.2L11.51,22.45L11.16,22.63L10.74,22.74L10.27,22.78L9.838,22.74L9.423,22.63L9.045,22.45L8.721,22.2L8.467,21.89L8.285,21.54L8.176,21.16L8.14,20.75L8.176,20.31L8.285,19.9L8.467,19.52L8.721,19.2L9.031,18.94L9.387,18.76L9.797,18.65L10.27,18.61zz" fill="#cfcfcf"/>
      <path d="M8.508,6.831L8.322,6.929L8.19,7.082L8.14,7.28L8.14,9.411L8.175,9.61L8.273,9.762L8.426,9.861L8.624,9.896L9.88,10.01L11.1,10.24L12.28,10.58L13.41,11.02L14.49,11.56L15.51,12.19L16.46,12.91L17.34,13.71L18.15,14.59L18.87,15.54L19.5,16.55L19.87,17.28L20.09,17.16L20.37,17.07L20.66,17.04L20.96,17.07L21.24,17.16L21.5,17.29L21.72,17.48L23.9,19.65L23.83,19.29L23.42,17.83L22.87,16.42L22.19,15.09L21.39,13.82L20.48,12.64L19.47,11.54L18.4,10.54L17.24,9.629L15.98,8.832L14.64,8.152L13.24,7.6L11.78,7.183L10.27,6.912L8.721,6.796zM8.31,12.37L8.188,12.51L8.14,12.71L8.14,14.84L8.175,15.03L8.273,15.19L8.426,15.29L8.624,15.32L9.309,15.39L9.98,15.52L10.63,15.71L11.26,15.96L11.87,16.27L12.44,16.64L12.97,17.07L13.47,17.55L13.94,18.04L14.36,18.58L14.71,19.15L15.01,19.75L15.24,20.38L15.42,21.04L15.54,21.71L15.6,22.39L15.63,22.59L15.73,22.74L15.89,22.84L16.08,22.88L18.22,22.88L18.41,22.84L18.53,22.77L17.48,21.72L17.29,21.49L17.15,21.23L17.07,20.95L17.04,20.66L17.07,20.38L17.15,20.1L17.29,19.84L17.48,19.6L18,19.08L17.8,18.58L17.36,17.72L16.85,16.9L16.26,16.13L15.6,15.42L14.88,14.76L14.11,14.17L13.3,13.65L12.44,13.21L11.54,12.86L10.6,12.58L9.627,12.4L8.624,12.32L8.467,12.3zM9.797,18.65L9.387,18.76L9.031,18.94L8.721,19.2L8.467,19.52L8.285,19.9L8.176,20.31L8.14,20.75L8.176,21.16L8.285,21.54L8.467,21.89L8.721,22.2L9.045,22.45L9.423,22.63L9.838,22.74L10.27,22.78L10.74,22.74L11.16,22.63L11.51,22.45L11.82,22.2L12.08,21.89L12.26,21.55L12.37,21.16L12.4,20.75L12.37,20.27L12.26,19.86L12.08,19.51L11.82,19.2L11.5,18.94L11.12,18.76L10.7,18.65L10.27,18.61zz" fill="#FFFFFF"/>
    </g>
    <g id="overlay">
      <path d="M31.91,29.789l-2.121,2.121c-0.195,0.195,-0.512,0.195,-0.707,0L25,27.828l-3.982,3.982c-0.195,0.195,-0.512,0.195,-0.707,0l-2.121,-2.121c-0.195,-0.195,-0.195,-0.512,0,-0.707L22.172,25l-3.982,-3.982c-0.195,-0.195,-0.195,-0.512,0,-0.707l2.121,-2.121c0.195,-0.195,0.512,-0.195,0.707,0L25,22.172l3.982,-3.982c0.195,-0.195,0.512,-0.195,0.707,0l2.121,2.121c0.195,0.195,0.195,0.512,0,0.707L27.828,25l4.082,4.082C32.106,29.277,32.106,29.594,31.91,29.789z" fill-rule="evenodd" fill="#CD4C32"/>
    </g>
  </g>
</svg>