<?xml version="1.0" encoding="UTF-8"?>
<!DOCTYPE svg PUBLIC "-//W3C//DTD SVG 1.1//EN" "http://www.w3.org/Graphics/SVG/1.1/DTD/svg11.dtd">
<svg version="1.1" id="Layer_1" xmlns="http://www.w3.org/2000/svg" xmlns:xlink="http://www.w3.org/1999/xlink" x="0px" y="0px" width="32px" height="32px" viewBox="0 0 32 32" enable-background="new 0 0 32 32" xml:space="preserve">
  <g id="main">
    <g id="icon">
      <path d="M13.91,0.09492L12.36,0.3309L10.87,0.7145L9.443,1.238L8.087,1.892L6.809,2.671L5.617,3.565L4.519,4.568L3.522,5.67L2.633,6.864L1.861,8.142L1.212,9.496L0.6939,10.92L0.3148,12.4L0.08184,13.94L0.002344,15.51L0.08281,17.09L0.3188,18.63L0.7023,20.11L1.225,21.53L1.88,22.89L2.659,24.17L3.553,25.36L4.555,26.46L5.658,27.46L6.852,28.36L8.13,29.14L9.484,29.79L10.91,30.31L12.39,30.7L13.92,30.93L15.5,31.01L17.08,30.93L18.62,30.7L20.1,30.31L21.52,29.79L22,29.56L22,28L18.5,28L18.2,27.97L17.92,27.88L17.66,27.74L17.44,27.56L17.26,27.34L17.12,27.08L17.03,26.8L17,26.5L17,23.5L17.03,23.2L17.12,22.92L17.14,22.88L16.08,22.88L15.89,22.84L15.73,22.74L15.63,22.59L15.6,22.39L15.54,21.71L15.42,21.04L15.24,20.38L15.01,19.75L14.71,19.15L14.36,18.58L13.94,18.04L13.47,17.55L12.97,17.07L12.44,16.64L11.87,16.27L11.26,15.96L10.63,15.71L9.98,15.52L9.309,15.39L8.624,15.32L8.426,15.29L8.273,15.19L8.175,15.03L8.14,14.84L8.14,12.71L8.188,12.51L8.309,12.37L8.467,12.3L8.624,12.32L9.627,12.4L10.6,12.58L11.54,12.86L12.44,13.21L13.3,13.65L14.11,14.17L14.88,14.76L15.6,15.42L16.26,16.13L16.85,16.9L17.36,17.72L17.8,18.58L18.16,19.48L18.43,20.42L18.61,21.39L18.67,22L21.09,22L21.02,21.14L20.81,19.92L20.48,18.75L20.04,17.62L19.5,16.55L18.87,15.54L18.15,14.59L17.34,13.71L16.46,12.91L15.51,12.19L14.49,11.56L13.41,11.02L12.28,10.58L11.1,10.24L9.88,10.01L8.624,9.896L8.426,9.861L8.273,9.762L8.175,9.61L8.14,9.411L8.14,7.28L8.19,7.082L8.321,6.929L8.508,6.83L8.721,6.796L10.27,6.912L11.78,7.183L13.24,7.599L14.64,8.152L15.98,8.832L17.24,9.629L18.4,10.54L19.47,11.54L20.48,12.64L21.39,13.82L22.19,15.09L22.86,16.42L23.11,17.06L23.2,17.03L23.5,17L26.5,17L26.8,17.03L27.08,17.12L27.34,17.26L27.56,17.44L27.74,17.66L27.88,17.92L27.97,18.2L28,18.5L28,22L29.55,22L29.78,21.53L30.3,20.11L30.69,18.63L30.92,17.09L31,15.51L30.92,13.94L30.69,12.4L30.3,10.92L29.78,9.496L29.12,8.142L28.35,6.864L27.45,5.67L26.45,4.568L25.35,3.565L24.15,2.671L22.88,1.892L21.52,1.238L20.1,0.7145L18.62,0.3309L17.08,0.09492L15.5,0.01445zM10.7,18.65L11.12,18.76L11.5,18.94L11.82,19.2L12.08,19.51L12.26,19.86L12.37,20.27L12.4,20.75L12.37,21.16L12.26,21.54L12.08,21.89L11.82,22.2L11.51,22.45L11.16,22.63L10.74,22.74L10.27,22.78L9.838,22.74L9.423,22.63L9.045,22.45L8.721,22.2L8.467,21.89L8.285,21.54L8.176,21.16L8.14,20.75L8.176,20.31L8.285,19.9L8.467,19.52L8.721,19.2L9.031,18.94L9.387,18.76L9.797,18.65L10.27,18.61zz" fill="#cfcfcf"/>
      <path d="M8.508,6.831L8.322,6.929L8.19,7.082L8.14,7.28L8.14,9.411L8.175,9.61L8.273,9.762L8.426,9.861L8.624,9.896L9.88,10.01L11.1,10.24L12.28,10.58L13.41,11.02L14.49,11.56L15.51,12.19L16.46,12.91L17.34,13.71L18.15,14.59L18.87,15.54L19.5,16.55L20.04,17.62L20.48,18.75L20.81,19.92L21.02,21.14L21.09,22L22,22L22,18.5L22.03,18.2L22.12,17.92L22.26,17.66L22.44,17.44L22.66,17.26L22.92,17.12L23.11,17.06L22.87,16.42L22.19,15.09L21.39,13.82L20.48,12.64L19.47,11.54L18.4,10.54L17.24,9.629L15.98,8.832L14.64,8.152L13.24,7.6L11.78,7.183L10.27,6.912L8.721,6.796zM8.31,12.37L8.188,12.51L8.14,12.71L8.14,14.84L8.175,15.03L8.273,15.19L8.426,15.29L8.624,15.32L9.309,15.39L9.98,15.52L10.63,15.71L11.26,15.96L11.87,16.27L12.44,16.64L12.97,17.07L13.47,17.55L13.94,18.04L14.36,18.58L14.71,19.15L15.01,19.75L15.24,20.38L15.42,21.04L15.54,21.71L15.6,22.39L15.63,22.59L15.73,22.74L15.89,22.84L16.08,22.88L17.14,22.88L17.26,22.66L17.44,22.44L17.66,22.26L17.92,22.12L18.2,22.03L18.5,22L18.67,22L18.61,21.39L18.43,20.42L18.16,19.48L17.8,18.58L17.36,17.72L16.85,16.9L16.26,16.13L15.6,15.42L14.88,14.76L14.11,14.17L13.3,13.65L12.44,13.21L11.54,12.86L10.6,12.58L9.627,12.4L8.624,12.32L8.467,12.3zM9.797,18.65L9.387,18.76L9.031,18.94L8.721,19.2L8.467,19.52L8.285,19.9L8.176,20.31L8.14,20.75L8.176,21.16L8.285,21.54L8.467,21.89L8.721,22.2L9.045,22.45L9.423,22.63L9.838,22.74L10.27,22.78L10.74,22.74L11.16,22.63L11.51,22.45L11.82,22.2L12.08,21.89L12.26,21.55L12.37,21.16L12.4,20.75L12.37,20.27L12.26,19.86L12.08,19.51L11.82,19.2L11.5,18.94L11.12,18.76L10.7,18.65L10.27,18.61zz" fill="#FFFFFF"/>
    </g>
    <g id="overlay">
      <path d="M31.5,23h-4.5v-4.5c0,-0.276,-0.224,-0.5,-0.5,-0.5h-3c-0.276,0,-0.5,0.224,-0.5,0.5v4.5h-4.5c-0.276,0,-0.5,0.224,-0.5,0.5v3c0,0.276,0.224,0.5,0.5,0.5h4.5v4.5c0,0.276,0.224,0.5,0.5,0.5h3c0.276,0,0.5,-0.224,0.5,-0.5v-4.5h4.5c0.276,0,0.5,-0.224,0.5,-0.5v-3C32,23.224,31.776,23,31.5,23z" fill-rule="evenodd" fill="#4EA17E"/>
    </g>
  </g>
</svg>