<?xml version="1.0" encoding="UTF-8"?>
<!DOCTYPE svg PUBLIC "-//W3C//DTD SVG 1.1//EN" "http://www.w3.org/Graphics/SVG/1.1/DTD/svg11.dtd">
<svg version="1.1" id="Layer_1" xmlns="http://www.w3.org/2000/svg" xmlns:xlink="http://www.w3.org/1999/xlink" x="0px" y="0px" width="16px" height="16px" viewBox="0 0 16 16" enable-background="new 0 0 16 16" xml:space="preserve">
  <g id="main">
    <g id="icon">
      <path d="M6.728,0.03887L5.98,0.1531L5.259,0.3387L4.568,0.5918L3.912,0.9086L3.294,1.285L2.717,1.718L2.186,2.203L1.703,2.736L1.273,3.314L0.8992,3.933L0.5852,4.588L0.3346,5.276L0.1512,5.993L0.03848,6.736L0,7.5L0.03887,8.264L0.1531,9.007L0.3387,9.724L0.5918,10.41L0.9086,11.07L1.285,11.69L1.718,12.26L2.203,12.8L2.736,13.28L3.314,13.71L3.933,14.09L4.588,14.41L5.276,14.66L5.993,14.85L6.736,14.96L7.5,15L8.264,14.96L9,14.85L9,14L7.3,14L7.038,13.97L6.794,13.9L6.381,13.62L6.102,13.21L6.026,12.96L6,12.7L6,10.3L6.026,10.04L6.102,9.794L6.381,9.381L6.733,9.144L6.326,8.674L5.756,8.172L5.105,7.796L4.394,7.55L3.643,7.44L3.449,7.366L3.375,7.172L3.375,5.991L3.402,5.882L3.469,5.804L3.556,5.765L3.643,5.777L4.199,5.824L4.737,5.924L5.257,6.075L5.756,6.273L6.684,6.803L7.506,7.494L8.197,8.316L8.588,9L9,9L9,7.3L9.014,7.16L8.918,7.034L8.472,6.548L7.983,6.104L7.455,5.706L6.891,5.356L6.294,5.057L5.667,4.812L5.015,4.625L4.339,4.499L3.643,4.436L3.449,4.362L3.375,4.167L3.375,2.987L3.403,2.877L3.476,2.792L3.697,2.719L4.554,2.783L5.389,2.933L6.199,3.164L6.976,3.47L7.716,3.846L8.412,4.288L9.06,4.79L9.652,5.348L10.21,5.956L10.25,6.005L10.3,6L12.7,6L12.96,6.026L13.21,6.102L13.62,6.381L13.9,6.794L13.97,7.038L14,7.3L14,9L14.85,9L14.96,8.264L15,7.5L14.96,6.736L14.85,5.993L14.66,5.276L14.41,4.588L14.09,3.933L13.71,3.314L13.28,2.736L12.8,2.203L12.26,1.718L11.69,1.285L11.07,0.9086L10.41,0.5918L9.724,0.3387L9.007,0.1531L8.264,0.03887L7.5,0zM5.025,9.345L5.234,9.445L5.414,9.586L5.655,9.955L5.736,10.44L5.655,10.89L5.414,11.25L5.045,11.49L4.555,11.57L4.086,11.49L3.876,11.39L3.697,11.25L3.456,10.89L3.375,10.44L3.456,9.975L3.556,9.766L3.697,9.586L4.066,9.345L4.555,9.264zz" fill="#cfcfcf"/>
      <path d="M3.476,2.793L3.403,2.877L3.375,2.987L3.375,4.167L3.449,4.362L3.643,4.436L4.339,4.499L5.015,4.625L5.667,4.812L6.294,5.057L6.891,5.356L7.455,5.706L7.983,6.104L8.472,6.548L8.918,7.034L9.014,7.16L9.026,7.038L9.102,6.794L9.381,6.381L9.794,6.102L10.04,6.026L10.25,6.005L10.21,5.956L9.652,5.348L9.06,4.79L8.412,4.288L7.716,3.846L6.976,3.47L6.199,3.164L5.389,2.933L4.554,2.783L3.697,2.719zM3.469,5.804L3.402,5.883L3.375,5.991L3.375,7.172L3.449,7.366L3.643,7.44L4.394,7.55L5.105,7.796L5.756,8.172L6.326,8.674L6.733,9.144L6.794,9.102L7.038,9.026L7.3,9L8.588,9L8.197,8.316L7.506,7.494L6.684,6.803L5.756,6.273L5.257,6.075L4.737,5.924L4.199,5.824L3.643,5.777L3.556,5.765zM4.066,9.345L3.697,9.586L3.556,9.766L3.456,9.975L3.375,10.44L3.456,10.89L3.697,11.25L3.876,11.39L4.086,11.49L4.555,11.57L5.045,11.49L5.414,11.25L5.655,10.89L5.736,10.44L5.655,9.955L5.414,9.586L5.234,9.445L5.025,9.345L4.555,9.264zz" fill="#FFFFFF"/>
    </g>
    <g id="overlay">
      <path d="M15.7,10h-2.7V7.3c0,-0.166,-0.134,-0.3,-0.3,-0.3h-2.4c-0.166,0,-0.3,0.134,-0.3,0.3v2.7H7.3c-0.166,0,-0.3,0.134,-0.3,0.3v2.4c0,0.166,0.134,0.3,0.3,0.3h2.7v2.7c0,0.166,0.134,0.3,0.3,0.3h2.4c0.166,0,0.3,-0.134,0.3,-0.3v-2.7h2.7c0.166,0,0.3,-0.134,0.3,-0.3v-2.4C16,10.134,15.866,10,15.7,10z" fill="#4EA17E"/>
    </g>
  </g>
</svg>